<svg xmlns="http://www.w3.org/2000/svg" xmlns:xlink="http://www.w3.org/1999/xlink" style="width:750px;height:905px;background:#fff" width="750" height="905" contentStyleType="text/css" preserveAspectRatio="none" version="1.1" viewBox="0 0 750 905" zoomAndPan="magnify"><g><text x="256.75" y="27.995" fill="#000" font-family="sans-serif" font-size="14" font-weight="bold" lengthAdjust="spacing" textLength="240">UserOperations mempool flow</text><rect style="stroke:#000;stroke-width:1.5" width="734.5" height="169.93" x="10" y="135.594" fill="none"/><rect style="stroke:#000;stroke-width:1.5" width="686.5" height="169.93" x="58" y="319.523" fill="none"/><rect style="stroke:#000;stroke-width:1.5" width="538" height="304.727" x="206.5" y="503.453" fill="none"/><rect style="stroke:#000;stroke-width:1.5" width="384" height="76.531" x="216.5" y="585.852" fill="none"/><line style="stroke:#181818;stroke-width:.5;stroke-dasharray:5,5" x1="39" x2="39" y1="118.594" y2="825.18"/><line style="stroke:#181818;stroke-width:.5;stroke-dasharray:5,5" x1="85" x2="85" y1="118.594" y2="825.18"/><line style="stroke:#181818;stroke-width:.5;stroke-dasharray:5,5" x1="276.5" x2="276.5" y1="118.594" y2="825.18"/><line style="stroke:#181818;stroke-width:.5;stroke-dasharray:5,5" x1="532.5" x2="532.5" y1="118.594" y2="825.18"/><line style="stroke:#181818;stroke-width:.5;stroke-dasharray:5,5" x1="667.5" x2="667.5" y1="118.594" y2="825.18"/><text x="20" y="115.292" fill="#000" font-family="sans-serif" font-size="14" lengthAdjust="spacing" textLength="32">Alice</text><ellipse cx="39" cy="50.797" fill="#E2E2F0" rx="8" ry="8" style="stroke:#181818;stroke-width:.5"/><path fill="none" d="M39,58.7969 L39,85.7969 M26,66.7969 L52,66.7969 M39,85.7969 L26,100.7969 M39,85.7969 L52,100.7969" style="stroke:#181818;stroke-width:.5"/><text x="20" y="837.175" fill="#000" font-family="sans-serif" font-size="14" lengthAdjust="spacing" textLength="32">Alice</text><ellipse cx="39" cy="848.977" fill="#E2E2F0" rx="8" ry="8" style="stroke:#181818;stroke-width:.5"/><path fill="none" d="M39,856.9766 L39,883.9766 M26,864.9766 L52,864.9766 M39,883.9766 L26,898.9766 M39,883.9766 L52,898.9766" style="stroke:#181818;stroke-width:.5"/><text x="68" y="115.292" fill="#000" font-family="sans-serif" font-size="14" lengthAdjust="spacing" textLength="28">Bob</text><ellipse cx="85" cy="50.797" fill="#E2E2F0" rx="8" ry="8" style="stroke:#181818;stroke-width:.5"/><path fill="none" d="M85,58.7969 L85,85.7969 M72,66.7969 L98,66.7969 M85,85.7969 L72,100.7969 M85,85.7969 L98,100.7969" style="stroke:#181818;stroke-width:.5"/><text x="68" y="837.175" fill="#000" font-family="sans-serif" font-size="14" lengthAdjust="spacing" textLength="28">Bob</text><ellipse cx="85" cy="848.977" fill="#E2E2F0" rx="8" ry="8" style="stroke:#181818;stroke-width:.5"/><path fill="none" d="M85,856.9766 L85,883.9766 M72,864.9766 L98,864.9766 M85,883.9766 L72,898.9766 M85,883.9766 L98,898.9766" style="stroke:#181818;stroke-width:.5"/><rect style="stroke:#181818;stroke-width:.5" width="101" height="30.297" x="226.5" y="87.297" fill="#E2E2F0" rx="2.5" ry="2.5"/><text x="233.5" y="107.292" fill="#000" font-family="sans-serif" font-size="14" lengthAdjust="spacing" textLength="87">Bundler RPC</text><rect style="stroke:#181818;stroke-width:.5" width="101" height="30.297" x="226.5" y="824.18" fill="#E2E2F0" rx="2.5" ry="2.5"/><text x="233.5" y="844.175" fill="#000" font-family="sans-serif" font-size="14" lengthAdjust="spacing" textLength="87">Bundler RPC</text><rect style="stroke:#181818;stroke-width:.5" width="115" height="30.297" x="475.5" y="87.297" fill="#E2E2F0" rx="2.5" ry="2.5"/><text x="482.5" y="107.292" fill="#000" font-family="sans-serif" font-size="14" lengthAdjust="spacing" textLength="101">Ethereum RPC</text><rect style="stroke:#181818;stroke-width:.5" width="115" height="30.297" x="475.5" y="824.18" fill="#E2E2F0" rx="2.5" ry="2.5"/><text x="482.5" y="844.175" fill="#000" font-family="sans-serif" font-size="14" lengthAdjust="spacing" textLength="101">Ethereum RPC</text><rect style="stroke:#181818;stroke-width:.5" width="134" height="30.297" x="600.5" y="87.297" fill="#E2E2F0" rx="2.5" ry="2.5"/><text x="607.5" y="107.292" fill="#000" font-family="sans-serif" font-size="14" lengthAdjust="spacing" textLength="120">UserOp Mempool</text><rect style="stroke:#181818;stroke-width:.5" width="134" height="30.297" x="600.5" y="824.18" fill="#E2E2F0" rx="2.5" ry="2.5"/><text x="607.5" y="844.175" fill="#000" font-family="sans-serif" font-size="14" lengthAdjust="spacing" textLength="120">UserOp Mempool</text><path fill="#EEE" d="M10,135.5938 L214,135.5938 L214,142.7266 L204,152.7266 L10,152.7266 L10,135.5938" style="stroke:#000;stroke-width:1.5"/><rect style="stroke:#000;stroke-width:1.5" width="734.5" height="169.93" x="10" y="135.594" fill="none"/><text x="25" y="148.661" fill="#000" font-family="sans-serif" font-size="13" font-weight="bold" lengthAdjust="spacing" textLength="159">Alice Submits UserOp</text><path fill="#FEFFDD" d="M44,157.7266 L44,182.7266 L158,182.7266 L158,167.7266 L148,157.7266 L44,157.7266" style="stroke:#181818;stroke-width:.5"/><path fill="#FEFFDD" d="M148,157.7266 L148,167.7266 L158,167.7266 L148,157.7266" style="stroke:#181818;stroke-width:.5"/><text x="50" y="174.793" fill="#000" font-family="sans-serif" font-size="13" lengthAdjust="spacing" textLength="93">create UserOp</text><polygon fill="#181818" points="265 204.992 275 208.992 265 212.992 269 208.992" style="stroke:#181818;stroke-width:1"/><line style="stroke:#181818;stroke-width:1" x1="39" x2="271" y1="208.992" y2="208.992"/><text x="46" y="203.926" fill="#000" font-family="monospace" font-size="13" lengthAdjust="spacing" textLength="168">eth_sendUserOperation</text><polygon fill="#181818" points="521 264.391 531 268.391 521 272.391 525 268.391" style="stroke:#181818;stroke-width:1"/><line style="stroke:#181818;stroke-width:1" x1="277" x2="527" y1="268.391" y2="268.391"/><text x="284" y="233.059" fill="#000" font-family="sans-serif" font-size="13" lengthAdjust="spacing" textLength="94">First Validation</text><text x="284" y="248.192" fill="#000" font-family="sans-serif" font-size="13" lengthAdjust="spacing" textLength="110">trace view call to:</text><text x="284" y="263.325" fill="#000" font-family="monospace" font-size="13" lengthAdjust="spacing" textLength="152">handleOps([userOpA]</text><text x="436" y="263.325" fill="#000" font-family="sans-serif" font-size="13" lengthAdjust="spacing" textLength="5">)</text><polygon fill="#181818" points="655.5 293.523 665.5 297.523 655.5 301.523 659.5 297.523" style="stroke:#181818;stroke-width:1"/><line style="stroke:#181818;stroke-width:1" x1="277" x2="661.5" y1="297.523" y2="297.523"/><text x="284" y="292.457" fill="#000" font-family="sans-serif" font-size="13" lengthAdjust="spacing" textLength="24">add</text><text x="312" y="292.457" fill="#000" font-family="monospace" font-size="13" lengthAdjust="spacing" textLength="48">UserOp</text><text x="364" y="292.457" fill="#000" font-family="sans-serif" font-size="13" lengthAdjust="spacing" textLength="78">to mempool</text><path fill="#EEE" d="M58,319.5234 L256,319.5234 L256,326.6563 L246,336.6563 L58,336.6563 L58,319.5234" style="stroke:#000;stroke-width:1.5"/><rect style="stroke:#000;stroke-width:1.5" width="686.5" height="169.93" x="58" y="319.523" fill="none"/><text x="73" y="332.59" fill="#000" font-family="sans-serif" font-size="13" font-weight="bold" lengthAdjust="spacing" textLength="153">Bob Submits UserOp</text><path fill="#FEFFDD" d="M90,341.6563 L90,366.6563 L204,366.6563 L204,351.6563 L194,341.6563 L90,341.6563" style="stroke:#181818;stroke-width:.5"/><path fill="#FEFFDD" d="M194,341.6563 L194,351.6563 L204,351.6563 L194,341.6563" style="stroke:#181818;stroke-width:.5"/><text x="96" y="358.723" fill="#000" font-family="sans-serif" font-size="13" lengthAdjust="spacing" textLength="93">create UserOp</text><polygon fill="#181818" points="265 388.922 275 392.922 265 396.922 269 392.922" style="stroke:#181818;stroke-width:1"/><line style="stroke:#181818;stroke-width:1" x1="85" x2="271" y1="392.922" y2="392.922"/><text x="92" y="387.856" fill="#000" font-family="monospace" font-size="13" lengthAdjust="spacing" textLength="168">eth_sendUserOperation</text><polygon fill="#181818" points="521 448.32 531 452.32 521 456.32 525 452.32" style="stroke:#181818;stroke-width:1"/><line style="stroke:#181818;stroke-width:1" x1="277" x2="527" y1="452.32" y2="452.32"/><text x="284" y="416.989" fill="#000" font-family="sans-serif" font-size="13" lengthAdjust="spacing" textLength="94">First Validation</text><text x="284" y="432.122" fill="#000" font-family="sans-serif" font-size="13" lengthAdjust="spacing" textLength="106">trace view call to</text><text x="284" y="447.254" fill="#000" font-family="monospace" font-size="13" lengthAdjust="spacing" textLength="152">handleOps([userOpB]</text><text x="436" y="447.254" fill="#000" font-family="sans-serif" font-size="13" lengthAdjust="spacing" textLength="5">)</text><polygon fill="#181818" points="655.5 477.453 665.5 481.453 655.5 485.453 659.5 481.453" style="stroke:#181818;stroke-width:1"/><line style="stroke:#181818;stroke-width:1" x1="277" x2="661.5" y1="481.453" y2="481.453"/><text x="284" y="476.387" fill="#000" font-family="sans-serif" font-size="13" lengthAdjust="spacing" textLength="24">add</text><text x="312" y="476.387" fill="#000" font-family="monospace" font-size="13" lengthAdjust="spacing" textLength="48">UserOp</text><text x="364" y="476.387" fill="#000" font-family="sans-serif" font-size="13" lengthAdjust="spacing" textLength="78">to mempool</text><path fill="#EEE" d="M206.5,503.4531 L344.5,503.4531 L344.5,510.5859 L334.5,520.5859 L206.5,520.5859 L206.5,503.4531" style="stroke:#000;stroke-width:1.5"/><rect style="stroke:#000;stroke-width:1.5" width="538" height="304.727" x="206.5" y="503.453" fill="none"/><text x="221.5" y="516.52" fill="#000" font-family="sans-serif" font-size="13" font-weight="bold" lengthAdjust="spacing" textLength="93">Build Bundle</text><polygon fill="#181818" points="655.5 537.719 665.5 541.719 655.5 545.719 659.5 541.719" style="stroke:#181818;stroke-width:1"/><line style="stroke:#181818;stroke-width:1" x1="277" x2="661.5" y1="541.719" y2="541.719"/><text x="284" y="536.653" fill="#000" font-family="sans-serif" font-size="13" lengthAdjust="spacing" textLength="87">fetch pending</text><text x="375" y="536.653" fill="#000" font-family="monospace" font-size="13" lengthAdjust="spacing" textLength="56">UserOps</text><polygon fill="#181818" points="288 566.852 278 570.852 288 574.852 284 570.852" style="stroke:#181818;stroke-width:1"/><line style="stroke:#181818;stroke-width:1" x1="282" x2="666.5" y1="570.852" y2="570.852"/><text x="294" y="565.786" fill="#000" font-family="monospace" font-size="13" lengthAdjust="spacing" textLength="144">[UserOpA, UserOpB]</text><path fill="#EEE" d="M216.5,585.8516 L293.5,585.8516 L293.5,592.9844 L283.5,602.9844 L216.5,602.9844 L216.5,585.8516" style="stroke:#000;stroke-width:1.5"/><rect style="stroke:#000;stroke-width:1.5" width="384" height="76.531" x="216.5" y="585.852" fill="none"/><text x="231.5" y="598.918" fill="#000" font-family="sans-serif" font-size="13" font-weight="bold" lengthAdjust="spacing" textLength="32">loop</text><text x="308.5" y="598.062" fill="#000" font-family="sans-serif" font-size="11" font-weight="bold" lengthAdjust="spacing" textLength="114">[for each UserOp]</text><polygon fill="#181818" points="521 650.383 531 654.383 521 658.383 525 654.383" style="stroke:#181818;stroke-width:1"/><line style="stroke:#181818;stroke-width:1" x1="277" x2="527" y1="654.383" y2="654.383"/><text x="284" y="619.051" fill="#000" font-family="sans-serif" font-size="13" lengthAdjust="spacing" textLength="115">Second Validation</text><text x="284" y="634.184" fill="#000" font-family="sans-serif" font-size="13" lengthAdjust="spacing" textLength="110">trace view call to:</text><text x="284" y="649.317" fill="#000" font-family="monospace" font-size="13" lengthAdjust="spacing" textLength="152">handleOps([userOp])</text><path fill="#FEFFDD" d="M282,674.3828 L282,699.3828 L539,699.3828 L539,684.3828 L529,674.3828 L282,674.3828" style="stroke:#181818;stroke-width:.5"/><path fill="#FEFFDD" d="M529,674.3828 L529,684.3828 L539,684.3828 L529,674.3828" style="stroke:#181818;stroke-width:.5"/><text x="288" y="691.45" fill="#000" font-family="sans-serif" font-size="13" lengthAdjust="spacing" textLength="88">create bundle</text><text x="380" y="691.45" fill="#000" font-family="monospace" font-size="13" lengthAdjust="spacing" textLength="144">[UserOpA, UserOpB]</text><polygon fill="#181818" points="521 751.914 531 755.914 521 759.914 525 755.914" style="stroke:#181818;stroke-width:1"/><line style="stroke:#181818;stroke-width:1" x1="277" x2="527" y1="755.914" y2="755.914"/><text x="284" y="720.582" fill="#000" font-family="sans-serif" font-size="13" lengthAdjust="spacing" textLength="98">Third Validation</text><text x="284" y="735.715" fill="#000" font-family="sans-serif" font-size="13" lengthAdjust="spacing" textLength="110">trace view call to:</text><text x="284" y="750.848" fill="#000" font-family="monospace" font-size="13" lengthAdjust="spacing" textLength="232">handleOps([UserOpA, UserOpB])</text><polygon fill="#181818" points="521 796.18 531 800.18 521 804.18 525 800.18" style="stroke:#181818;stroke-width:1"/><line style="stroke:#181818;stroke-width:1" x1="277" x2="527" y1="800.18" y2="800.18"/><text x="284" y="779.981" fill="#000" font-family="sans-serif" font-size="13" lengthAdjust="spacing" textLength="120">submit transaction</text><text x="284" y="795.114" fill="#000" font-family="monospace" font-size="13" lengthAdjust="spacing" textLength="232">handleOps([UserOpA, UserOpB])</text></g></svg>